<svg width="436" height="166" viewBox="0 0 436 166" fill="none" xmlns="http://www.w3.org/2000/svg">
<g clip-path="url(#clip0_42_2)">
<rect x="26" y="40" width="20" height="86" rx="10" fill="black"/>
<rect y="68" width="20" height="30" rx="10" fill="black"/>
<rect x="52" y="28" width="20" height="110" rx="10" fill="black"/>
<rect x="104" y="21" width="20" height="124" rx="10" fill="black"/>
<rect x="78" width="20" height="166" rx="10" fill="black"/>
<rect x="234" y="28" width="20" height="117" rx="10" fill="black"/>
<rect x="338" y="25" width="20" height="117" rx="10" fill="black"/>
<rect x="260" y="3" width="20" height="160" rx="10" fill="black"/>
<rect x="364" y="3" width="20" height="157" rx="10" fill="black"/>
<rect x="312" y="61" width="20" height="44" rx="10" fill="black"/>
<rect x="286" y="35" width="20" height="96" rx="10" fill="black"/>
<rect x="130" y="54" width="20" height="58" rx="10" fill="black"/>
<rect x="416" y="54" width="20" height="58" rx="10" fill="black"/>
<rect x="156" y="41" width="20" height="84" rx="10" fill="black"/>
<rect x="390" y="41" width="20" height="84" rx="10" fill="black"/>
<rect x="208" y="40" width="20" height="86" rx="10" fill="black"/>
<rect x="182" y="25" width="20" height="117" rx="10" fill="black"/>
</g>
<defs>
<clipPath id="clip0_42_2">
<rect width="436" height="166" fill="white"/>
</clipPath>
</defs>
</svg>
